<svg id="Layer_1" data-name="Layer 1" xmlns="http://www.w3.org/2000/svg" viewBox="0 0 477.32 83.7"><defs><style>.cls-1{fill:#991c22;}.cls-2{fill:#be202e;}.cls-3{fill:#007284;}.cls-4{fill:#00a59b;}.cls-5{fill:#002840;}</style></defs><polygon class="cls-1" points="40.82 76.17 37.06 55.91 66.75 83.69 40.82 76.17"/><polygon class="cls-2" points="33.29 76.17 7.37 83.69 37.06 55.91 33.29 76.17"/><polygon class="cls-3" points="44.6 42.21 74.12 83.69 74.12 54.07 37.06 0 44.6 42.21"/><polygon class="cls-4" points="37.06 0 0 54.07 0 83.69 29.52 42.21 37.06 0"/><path class="cls-5" d="M387.54,242.93l13.4,37h-4.83l-5.58-15.38H380.47l-5.68,15.38h-4.86l13.58-37Zm1.52,17.62-3.55-9.83-3.57,9.83Z" transform="translate(-273.34 -219.81)"/><path class="cls-5" d="M411.06,242.93l21.09,29.58V242.93h4.65v37h-5.14l-20.55-28.83v28.83h-4.65v-37Z" transform="translate(-273.34 -219.81)"/><path class="cls-5" d="M452.94,242.93q9.26.06,14.4,5.22a18.2,18.2,0,0,1,5.5,13.27,18.41,18.41,0,0,1-5.6,13.43q-5,5-14.3,5.09h-7.82v-37Zm-3.17,4.12v28.8h3.14q6.9,0,10.83-3.81a15.14,15.14,0,0,0,0-21.24q-3.93-3.75-10.83-3.75Z" transform="translate(-273.34 -219.81)"/><path class="cls-5" d="M498.24,247H482.42v-4h23.3l-19,33h20.06v4H479.23Z" transform="translate(-273.34 -219.81)"/><path class="cls-5" d="M517.54,242.93v37h-4.66v-37Z" transform="translate(-273.34 -219.81)"/><path class="cls-5" d="M546.32,242.93v4H530.84v12.45h15.48v4H530.84V275.9h15.48v4H526.19v-37Z" transform="translate(-273.34 -219.81)"/><path class="cls-5" d="M586.53,243.57v36.37h-2.06V245.79l-14.06,18.44-14.1-18.44v34.15h-2.06V243.57h3l13.17,17.24,13.14-17.24Z" transform="translate(-273.34 -219.81)"/><path class="cls-5" d="M607,243.57l13.19,36.37H618l-5.81-16H599.63l-5.91,16h-2.19l13.35-36.37Zm4.47,18.34-5.53-15.25-5.55,15.25Z" transform="translate(-273.34 -219.81)"/><path class="cls-5" d="M641,257.13a11.32,11.32,0,0,1,3.68,2.54,11.9,11.9,0,0,1,0,16.8,12,12,0,0,1-7.07,3.47H625.77V243.57h10.85a7.46,7.46,0,0,1,5.28,12.73A6.31,6.31,0,0,1,641,257.13Zm-13.14-11.52V256.2h9.26a5.33,5.33,0,0,0,3.34-1.34A5.18,5.18,0,0,0,642,251a5.41,5.41,0,0,0-5.4-5.42Zm8.41,32.27a9.33,9.33,0,0,0,6.89-2.87,9.84,9.84,0,0,0,0-13.87,9.34,9.34,0,0,0-6.89-2.88h-8.41v19.62Z" transform="translate(-273.34 -219.81)"/><path class="cls-5" d="M667.52,243.57l13.19,36.37h-2.16l-5.81-16H660.17l-5.92,16h-2.18l13.34-36.37ZM672,261.91l-5.53-15.25-5.56,15.25Z" transform="translate(-273.34 -219.81)"/><path class="cls-5" d="M697.62,259.8a15.21,15.21,0,0,1-6.13-3.53A7.7,7.7,0,0,1,702.4,245.4a6.71,6.71,0,0,1,1.73,2.7l-1.85.72a5.7,5.7,0,0,0-1.34-2,5.66,5.66,0,0,0-9.65,4,5.5,5.5,0,0,0,1.65,4,14.88,14.88,0,0,0,4.27,2.78,18,18,0,0,1,7.35,4.4,10.3,10.3,0,0,1,3.14,7.59A10.79,10.79,0,0,1,697,280.38a10.3,10.3,0,0,1-7.61-3.19,10.19,10.19,0,0,1-3-5.87l1.93-.69a8.28,8.28,0,0,0,2.52,5.14,8.76,8.76,0,1,0,12.4-12.37A16.55,16.55,0,0,0,697.62,259.8Z" transform="translate(-273.34 -219.81)"/><path class="cls-5" d="M745.2,248.53A18.65,18.65,0,1,1,732,243.06,18,18,0,0,1,745.2,248.53ZM732,245.14A16.59,16.59,0,1,0,743.72,250,15.95,15.95,0,0,0,732,245.14Z" transform="translate(-273.34 -219.81)"/></svg>